<?xml version="1.0" encoding="utf-8"?><svg id="animate143" image-rendering="optimizeQuality" baseProfile="basic" version="1.1" preserveAspectRatio="xMidYMid slice" x="0px" y="0px" width="600" height="600" xmlns="http://www.w3.org/2000/svg" viewBox="0 0 450 450" xmlns:xlink="http://www.w3.org/1999/xlink"><g id="Scene-1" overflow="visible"><g id="Tween-12" transform="translate(251.6 266.05)"><animateTransform attributeName="transform" additive="replace" type="translate" repeatCount="indefinite" dur="0.667s" keyTimes="0;.45;.95;1" values="235.35,253.75;235.416,253.793;235.35,253.75;235.35,253.75"/><animateTransform attributeName="transform" additive="sum" type="rotate" repeatCount="indefinite" dur="0.667s" keyTimes="0;.45;.95;1" values="0,0,0;2.741,0,0;0,0,0;0,0,0"/><animateTransform attributeName="transform" additive="sum" type="translate" repeatCount="indefinite" dur="0.667s" keyTimes="0;.45;.95;1" values="16.25,12.3;16.15,12.25;16.25,12.3;16.25,12.3"/><path fill="#FFF" stroke="none" d="M-13.95 -18.65Q-13.8 -19.2 -13.45 -19.55L-13.95 -20.25Q-14.85 -21.65 -15.6 -22.2L-16.15 -22.45Q-20.2 -12.2 -21.1 -5.2 -22.2 2.95 -19.8 9.4 -19.55 9.2 -19.25 9.15 -18.55 8.95 -17.85 9.4 -16.95 9.95 -16.05 10.5L-16.1 10.5Q-9.7 14.3 -2.6 16.5 -1.3 16.85 .05 17.2L.05 17.25Q7.2 19.15 13.75 18.7 15.25 18.65 16.2 18.2L16.25 18.2Q16.95 17.85 17.4 17.2 17.45 17.05 17.5 16.95 18.1 15.7 17.45 14.35L17.45 14.4Q16.85 13.25 15.75 12.65 15.7 12.6 15.65 12.6 15.4 12.4 15.15 12.35 14.3 12 11.8 11.35 9.65 10.8 7.9 9.75L7.9 9.8Q6.1 8.8 3.55 5.9 2.1 4.35 .8 2.7 -6.15 -5.45 -11.9 -14.4 -12.8 -15.8 -13.7 -17.25 -14.15 -17.95 -13.95 -18.65Z"/><path fill="#211816" stroke="none" d="M-13.45 -19.55Q-13.8 -19.2 -13.95 -18.65 -14.15 -17.95 -13.7 -17.25 -12.8 -15.8 -11.9 -14.4 -6.15 -5.45 .8 2.7 2.1 4.35 3.55 5.9 6.1 8.8 7.9 9.8L7.9 9.75Q9.65 10.8 11.8 11.35 14.3 12 15.15 12.35 15.4 12.4 15.65 12.6 15.7 12.6 15.75 12.65 16.85 13.25 17.45 14.4L17.45 14.35Q18.1 15.7 17.5 16.95 17.45 17.05 17.4 17.2 16.95 17.85 16.25 18.2L16.2 18.2Q15.25 18.65 13.75 18.7 7.2 19.15 .05 17.25L.05 17.2Q-1.3 16.85 -2.6 16.5 -9.7 14.3 -16.1 10.5L-16.05 10.5Q-16.95 9.95 -17.85 9.4 -18.55 8.95 -19.25 9.15 -19.55 9.2 -19.8 9.4 -20.2 9.6 -20.4 10 -20.85 10.65 -20.65 11.4 -20.45 12.1 -19.8 12.55 -18.9 13.1 -18 13.65 -11.2 17.7 -3.7 20.05L-3.65 20.05Q-2.3 20.45 -.9 20.8 6.9 22.9 13.95 22.4 16.3 22.3 17.8 21.55 17.8 21.5 17.85 21.5 19.6 20.65 20.65 18.95 20.75 18.75 20.8 18.6L20.85 18.55Q22.2 15.7 20.75 12.75 19.65 10.45 17.45 9.35 16.95 9.05 16.45 8.9L16.5 8.9Q15.5 8.5 12.75 7.75 11.05 7.3 9.75 6.55L9.7 6.55Q8.3 5.75 6.3 3.45L6.3 3.4Q4.9 1.9 3.65 .35L3.6 .3Q-3.15 -7.65 -8.8 -16.4 -9.7 -17.8 -10.55 -19.2 -11 -19.85 -11.7 -20.05 -12.45 -20.25 -13.1 -19.8 -13.3 -19.7 -13.45 -19.55Z"/></g><g id="Layer6_0_FILL"><path fill="#FFF" stroke="none" d="M157.8 248.05Q156.451 250.014 154.65 251.75 151.811 254.555 148.25 256.4 148.250 256.434 148.2 256.45 147.886 256.619 147.55 256.75 147.224 257.973 146.9 259.25L146.9 259.25Q144.085 269.986 142.95 280.5 142.211 287.046 141.4 289.35 141.316 289.593 141.15 289.8 140.524 291.304 139.2 293.15L139.2 293.2Q139.174 293.240 139.15 293.25 138.405 294.313 136.9 296.25 136.902 296.313 136.85 296.35 132.112 303.593 134.4 313.1L134.4 313.1Q136.258 320.676 141.4 325.3 141.513 325.395 141.6 325.45 142.438 326.439 143.4 326.95 143.472 326.974 143.5 327 143.929 327.224 144.25 327.45 144.312 327.489 144.35 327.5L144.35 327.5Q144.503 327.581 144.6 327.65 144.987 327.858 145.35 328.1 145.415 328.138 145.45 328.15 150.263 330.692 157 331.15 163.893 331.618 168.05 329.9 168.788 329.593 169.5 329.85 170.203 330.166 170.5 330.85 170.807 331.587 170.5 332.3 170.231 333.003 169.5 333.3 164.705 335.381 156.75 334.85 149.623 334.361 144.45 331.8 143.574 332.361 143.1 332.95 143.063 333.022 143 333.05 142.771 333.393 142.7 333.8 142.751 334.221 142.75 334.6 142.967 335.111 143.45 335.6 143.783 335.917 144.2 336.2 144.246 336.225 144.25 336.25 144.988 336.740 145.95 337.15L145.9 337.15Q150.942 339.153 161.85 337.2 162.185 337.173 162.45 337.2 162.608 337.200 162.75 337.2 163.05 337.2 163.4 337.2 163.681 337.194 163.95 337.25 168.590 338.739 177.3 339.75 186.173 340.843 191.55 340.55 198.323 340.233 202.3 337.75L202.3 337.7Q204.775 336.188 206.35 333.75 206.479 333.542 206.6 333.3 206.684 333.223 206.75 333.1 207.366 332.056 207.8 330.8L207.8 330.8Q209.530 326.319 208.55 321.75 207.538 317.271 204.2 313.65 200.969 310.069 196.45 308.3 195.762 308.049 195.45 307.35 195.143 306.642 195.4 305.9 195.700 305.212 196.4 304.9 197.106 304.593 197.8 304.85 203.130 306.929 206.95 311.15 210.961 315.528 212.15 320.95 213.369 326.580 211.25 332.1L211.25 332.05Q211.134 332.461 210.95 332.8 213.198 333.146 215.25 333.25L215.3 333.25Q227.373 333.678 236.6 329.05L236.55 329.1Q237.35 328.65 238.15 328.2L238.15 328.15Q238.662 327.909 239.15 327.6 241.680 325.990 243.5 323.9 243.708 323.716 243.85 323.5 243.995 323.183 244.1 322.85 245.05 319.7 245.4 314.2 245.580 311.314 245.5 309.2 244.656 306.951 243.25 304.95 242.069 303.195 240.45 301.6 236.206 297.433 230.65 296 229.988 295.809 229.6 295.2 229.209 294.603 229.3 293.9 229.525 292.65 229.7 291.4L229.7 291.45Q230.405 286.600 230.5 281.8 230.596 278.087 230.35 274.4 230.297 273.658 230.8 273.05 231.309 272.499 232.05 272.45 232.621 272.411 233.05 272.65 233.395 267.791 234.5 260.45 235.059 256.791 235.35 253.75 232.484 257.247 229.05 260.75 217.364 272.970 209.9 273 199.682 273.336 182.2 263.45L182.15 263.45Q177.754 260.938 168.2 254.7 161.655 250.450 157.8 248.05M160.5 242.05Q160.412 242.087 160.3 242.1L185.2 240.05 185.25 240.05Q207.420 238.718 223.2 239.2 217.675 236.892 214.75 236.15 207.7 234.4 196.45 235.3 185.4 236.1 174 238.25 165.5 239.85 160.5 242.05M214.85 254.8Q214.4 253.8 213.45 253.8 212.6 253.8 211.2 254.95 209.75 256.05 209.35 257.15 208.95 258.1 209.5 259.5L209.8 260.05 212.1 258.15 211.55 257Q211.45 256.85 211.45 256.6 211.55 256.4 211.75 256.25L212.05 256.1Q212.25 256.2 212.3 256.4L212.65 257.1Q212.9 257.7 212.3 260.35L212.05 261.35Q211.7 263.2 211.7 263.65 211.7 264.35 211.95 265L212.65 266.5 218.1 262.05 217.4 260.4 214.2 263Q214.1 262.8 214.1 262.45 214.1 261.7 214.4 260.4L214.6 259.4Q215.4 256.15 214.85 254.8M217.7 251.9L217.9 251.7 219.3 255.55 221.2 254 218.9 248.9 215.75 251.45 216.2 258.75 216.8 260.1 220.15 257.4 221.1 259.6 223 258.05 222.05 255.85 223.15 254.95 222.55 253.55 218.25 257.05 217.7 251.9M230.3 249.1L230.1 248.65 223.35 254.15 223.55 254.6 230.3 249.1M229.9 248.2L229.7 247.7 222.95 253.25 223.15 253.7 229.9 248.2M230.75 250.05L230.55 249.55 223.75 255.1 223.95 255.55 230.75 250.05M224.7 246.5Q224.05 247.15 223.95 247.4 223.7 247.8 223.6 248.45L222.5 246 220.45 247.65 222.75 252.75 224.75 251.1 224.05 249.5Q223.9 249.3 224 249.1 224 248.95 224.2 248.75L224.55 248.6Q224.65 248.6 224.8 248.85L225.5 250.5 227.6 248.8 226.6 246.65Q226.3 246.1 225.85 246 225.35 246 224.7 246.5Z"/><path fill="#211816" stroke="none" d="M148.05 242.35Q147.663 242.325 147.25 242.45 138.952 245.714 136.65 252.1 135.408 255.518 135.95 258.2 136.130 258.948 136.75 259.35 137.350 259.795 138.05 259.65 140.806 259.249 143.25 258.45 140.406 269.388 139.25 280.1 138.673 285.296 138.05 287.55 137.844 287.879 137.75 288.35 137.224 289.553 136.15 291L136.3 290.85Q136.069 291.145 135.9 291.4 135.207 292.436 133.9 294.15 133.900 294.188 133.85 294.2 128.105 302.746 130.8 313.95L130.8 314Q132.918 322.605 138.8 327.9 139.817 329.073 140.95 329.8 140.508 330.250 140.15 330.7 140.134 330.773 140.1 330.8 139.159 332.022 139 333.55 138.995 333.667 139 333.75L139 333.8Q138.996 333.871 139 333.95 139.05 334.563 139.1 335.05 139.117 335.200 139.15 335.3 139.485 336.842 140.85 338.2 141.416 338.782 142.15 339.3L142.1 339.25Q143.111 339.959 144.45 340.55L144.45 340.55Q150.148 343.042 162.5 340.85L162.5 340.85Q162.629 340.899 162.75 340.9 162.913 340.9 163.1 340.9 167.934 342.386 176.85 343.4 186.126 344.556 191.75 344.25 199.676 343.866 204.3 340.85L204.25 340.85Q207.177 339.065 209.1 336.3 212.232 336.812 215.1 336.95L215.1 336.95Q228.236 337.416 238.25 332.35 238.312 332.335 238.35 332.3 239.15 331.875 239.95 331.4L239.9 331.4Q240.537 331.089 241.15 330.7 244.119 328.809 246.25 326.35 249.258 323.006 250.15 319.1 251.120 315.156 249.75 310.35L249.8 310.35Q248.711 306.314 246.3 302.85 244.930 300.804 243.05 298.95 238.720 294.686 233.2 292.85 233.305 292.436 233.35 292L233.35 291.95Q234.094 286.899 234.2 281.9 234.303 278.011 234.05 274.15 233 273.408 233.4 272.9 233.257 272.755 233.05 272.65 232.621 272.411 232.05 272.45 231.309 272.499 230.8 273.05 230.297 273.658 230.35 274.4 230.596 278.087 230.5 281.8 230.405 286.600 229.7 291.45L229.7 291.4Q229.525 292.65 229.3 293.9 229.209 294.603 229.6 295.2 229.988 295.809 230.65 296 236.206 297.433 240.45 301.6 242.069 303.195 243.25 304.95 244.656 306.951 245.5 309.2 245.931 310.231 246.2 311.3L246.2 311.35Q247.279 315.143 246.55 318.25 245.897 321.053 243.85 323.5 243.708 323.716 243.5 323.9 241.680 325.990 239.15 327.6 238.662 327.909 238.15 328.15L238.15 328.2Q237.35 328.65 236.55 329.1L236.6 329.05Q227.373 333.678 215.3 333.25L215.25 333.25Q213.198 333.146 210.95 332.8 211.134 332.461 211.25 332.05L211.25 332.1Q213.369 326.580 212.15 320.95 210.961 315.528 206.95 311.15 203.130 306.929 197.8 304.85 197.106 304.593 196.4 304.9 195.700 305.212 195.4 305.9 195.143 306.642 195.45 307.35 195.762 308.049 196.45 308.3 200.969 310.069 204.2 313.65 207.538 317.271 208.55 321.75 209.530 326.319 207.8 330.8L207.8 330.8Q207.366 332.056 206.75 333.1 206.684 333.223 206.6 333.3 206.479 333.542 206.35 333.75 204.775 336.188 202.3 337.7L202.3 337.75Q198.323 340.233 191.55 340.55 186.173 340.843 177.3 339.75 168.590 338.739 163.95 337.25 163.681 337.194 163.4 337.2 163.05 337.2 162.75 337.2 162.608 337.200 162.45 337.2 162.185 337.173 161.85 337.2 150.942 339.153 145.9 337.15L145.95 337.15Q144.988 336.740 144.25 336.25 144.246 336.225 144.2 336.2 143.783 335.917 143.45 335.6 142.967 335.111 142.75 334.6 142.751 334.221 142.7 333.8 142.771 333.393 143 333.05 143.063 333.022 143.1 332.95 143.574 332.361 144.45 331.8 149.623 334.361 156.75 334.85 164.705 335.381 169.5 333.3 170.231 333.003 170.5 332.3 170.807 331.587 170.5 330.85 170.203 330.166 169.5 329.85 168.788 329.593 168.05 329.9 163.893 331.618 157 331.15 150.263 330.692 145.45 328.15 145.415 328.138 145.35 328.1 144.987 327.858 144.6 327.65 144.503 327.581 144.35 327.5L144.35 327.5Q144.312 327.489 144.25 327.45 143.929 327.224 143.5 327 143.472 326.974 143.4 326.95 142.438 326.439 141.6 325.45 141.513 325.395 141.4 325.3 136.258 320.676 134.4 313.1L134.4 313.1Q132.112 303.593 136.85 296.35 136.902 296.313 136.9 296.25 138.405 294.313 139.15 293.25 139.174 293.240 139.2 293.2L139.2 293.15Q140.524 291.304 141.15 289.8 141.316 289.593 141.4 289.35 142.211 287.046 142.95 280.5 144.085 269.986 146.9 259.25L146.9 259.25Q147.224 257.973 147.55 256.75 147.886 256.619 148.2 256.45 148.250 256.434 148.25 256.4 151.811 254.555 154.65 251.75 156.451 250.014 157.8 248.05 161.655 250.450 168.2 254.7 177.754 260.938 182.15 263.45L182.2 263.45Q199.682 273.336 209.9 273 217.364 272.970 229.05 260.75 232.484 257.247 235.35 253.75 236.256 252.660 237.1 251.55 237.123 251.548 237.15 251.5 238 250.337 238.85 249.2 239.141 248.807 239.2 248.3L239.85 242.25Q239.935 241.509 239.45 240.9 238.964 240.290 238.2 240.2 233.704 239.698 228.4 239.4 225.907 239.268 223.2 239.2 207.420 238.718 185.25 240.05L185.2 240.05 160.3 242.1 155.25 242.55Q154.860 242.580 154.5 242.75L148.05 242.35M156.7 243.05L156.7 243.05Q156.555 242.968 156.4 242.9L156.4 242.85Q156.489 242.899 156.55 242.95 156.700 243.015 156.8 243.1 156.775 243.072 156.7 243.05M157.05 243.25L157 243.2Q156.951 243.184 156.9 243.15 156.983 243.202 157.05 243.25M148.25 246.05L154.35 246.45Q153.356 247.858 152.05 249.1 149.608 251.524 146.55 253.15 146.549 253.161 146.5 253.15 145.919 253.474 145.3 253.7L145.25 253.75Q145.250 253.763 145.2 253.75L145.15 253.8Q145.124 253.836 145.1 253.85 142.534 254.990 139.55 255.65 139.691 254.586 140.1 253.4 141.991 248.628 148.25 246.05M235.95 243.7L235.55 247.35Q234.864 248.355 234.15 249.35L234.2 249.3Q230.754 253.750 226.4 258.2 216.133 268.930 209.8 269.3 200.317 269.463 184 260.25L184 260.25Q179.645 257.761 170.2 251.6 164.749 248.053 161.15 245.75L185.5 243.75Q211.145 242.207 228.2 243.1 232.337 243.339 235.95 243.7Z"/><path fill="#d7000f" stroke="none" d="M235.55 247.35L235.95 243.7Q232.337 243.339 228.2 243.1 211.145 242.207 185.5 243.75L161.15 245.75Q164.749 248.053 170.2 251.6 179.645 257.761 184 260.25L184 260.25Q200.317 269.463 209.8 269.3 216.133 268.930 226.4 258.2 230.754 253.750 234.2 249.3L234.15 249.35Q234.864 248.355 235.55 247.35M223.95 247.4Q224.05 247.15 224.7 246.5 225.35 246 225.85 246 226.3 246.1 226.6 246.65L227.6 248.8 225.5 250.5 224.8 248.85Q224.65 248.6 224.55 248.6L224.2 248.75Q224 248.95 224 249.1 223.9 249.3 224.05 249.5L224.75 251.1 222.75 252.75 220.45 247.65 222.5 246 223.6 248.45Q223.7 247.8 223.95 247.4M230.55 249.55L230.75 250.05 223.95 255.55 223.75 255.1 230.55 249.55M229.7 247.7L229.9 248.2 223.15 253.7 222.95 253.25 229.7 247.7M230.1 248.65L230.3 249.1 223.55 254.6 223.35 254.15 230.1 248.65M217.9 251.7L217.7 251.9 218.25 257.05 222.55 253.55 223.15 254.95 222.05 255.85 223 258.05 221.1 259.6 220.15 257.4 216.8 260.1 216.2 258.75 215.75 251.45 218.9 248.9 221.2 254 219.3 255.55 217.9 251.7M213.45 253.8Q214.4 253.8 214.85 254.8 215.4 256.15 214.6 259.4L214.4 260.4Q214.1 261.7 214.1 262.45 214.1 262.8 214.2 263L217.4 260.4 218.1 262.05 212.65 266.5 211.95 265Q211.7 264.35 211.7 263.65 211.7 263.2 212.05 261.35L212.3 260.35Q212.9 257.7 212.65 257.1L212.3 256.4Q212.25 256.2 212.05 256.1L211.75 256.25Q211.55 256.4 211.45 256.6 211.45 256.85 211.55 257L212.1 258.15 209.8 260.05 209.5 259.5Q208.95 258.1 209.35 257.15 209.75 256.05 211.2 254.95 212.6 253.8 213.45 253.8M154.35 246.45L148.25 246.05Q141.991 248.628 140.1 253.4 139.691 254.586 139.55 255.65 142.534 254.990 145.1 253.85 145.124 253.836 145.15 253.8L145.2 253.75Q145.250 253.763 145.25 253.75L145.3 253.7Q145.919 253.474 146.5 253.15 146.549 253.161 146.55 253.15 149.608 251.524 152.05 249.1 153.356 247.858 154.35 246.45Z"/><animate attributeName="display" repeatCount="indefinite" dur="0.667s" keyTimes="0;.95;1" values="none;inline;inline"/></g><g display="none" id="Layer5_0_FILL"><path fill="#FFF" stroke="none" d="M157.8 248.05Q156.451 250.014 154.65 251.75 151.811 254.555 148.25 256.4 148.250 256.434 148.2 256.45 147.886 256.619 147.55 256.75 147.224 257.973 146.9 259.25L146.9 259.25Q144.085 269.986 142.95 280.5 142.211 287.046 141.4 289.35 141.316 289.593 141.15 289.8 140.524 291.304 139.2 293.15L139.2 293.2Q139.174 293.240 139.15 293.25 138.405 294.313 136.9 296.25 136.902 296.313 136.85 296.35 132.112 303.593 134.4 313.1L134.4 313.1Q136.258 320.676 141.4 325.3 141.513 325.395 141.6 325.45 142.438 326.439 143.4 326.95 143.472 326.974 143.5 327 143.929 327.224 144.25 327.45 144.312 327.489 144.35 327.5L144.35 327.5Q144.503 327.581 144.6 327.65 144.987 327.858 145.35 328.1 145.415 328.138 145.45 328.15 150.263 330.692 157 331.15 163.893 331.618 168.05 329.9 168.788 329.593 169.5 329.85 170.203 330.166 170.5 330.85 170.807 331.587 170.5 332.3 170.231 333.003 169.5 333.3 164.705 335.381 156.75 334.85 149.623 334.361 144.45 331.8 143.574 332.361 143.1 332.95 143.063 333.022 143 333.05 142.771 333.393 142.7 333.8 142.751 334.221 142.75 334.6 142.967 335.111 143.45 335.6 143.783 335.917 144.2 336.2 144.246 336.225 144.25 336.25 144.988 336.740 145.95 337.15L145.9 337.15Q150.942 339.153 161.85 337.2 162.185 337.173 162.45 337.2 162.608 337.200 162.75 337.2 163.05 337.2 163.4 337.2 163.681 337.194 163.95 337.25 168.590 338.739 177.3 339.75 186.173 340.843 191.55 340.55 198.323 340.233 202.3 337.75L202.3 337.7Q204.775 336.188 206.35 333.75 206.479 333.542 206.6 333.3 206.684 333.223 206.75 333.1 207.366 332.056 207.8 330.8L207.8 330.8Q209.530 326.319 208.55 321.75 207.538 317.271 204.2 313.65 200.969 310.069 196.45 308.3 195.762 308.049 195.45 307.35 195.143 306.642 195.4 305.9 195.700 305.212 196.4 304.9 197.106 304.593 197.8 304.85 203.130 306.929 206.95 311.15 210.961 315.528 212.15 320.95 213.369 326.580 211.25 332.1L211.25 332.05Q211.134 332.461 210.95 332.8 213.198 333.146 215.25 333.25L215.3 333.25Q227.373 333.678 236.6 329.05L236.55 329.1Q237.35 328.65 238.15 328.2L238.15 328.15Q238.662 327.909 239.15 327.6 241.680 325.990 243.5 323.9 243.708 323.716 243.85 323.5 243.995 323.183 244.1 322.85 245.05 319.7 245.4 314.2 245.580 311.314 245.5 309.2 244.656 306.951 243.25 304.95 242.069 303.195 240.45 301.6 236.206 297.433 230.65 296 229.988 295.809 229.6 295.2 229.209 294.603 229.3 293.9 229.525 292.65 229.7 291.4L229.7 291.45Q230.405 286.600 230.5 281.8 230.596 278.087 230.35 274.4 230.297 273.658 230.8 273.05 231.309 272.499 232.05 272.45 232.621 272.411 233.05 272.65 233.395 267.791 234.5 260.45 235.059 256.791 235.35 253.75 232.484 257.247 229.05 260.75 217.364 272.970 209.9 273 199.682 273.336 182.2 263.45L182.15 263.45Q177.754 260.938 168.2 254.7 161.655 250.450 157.8 248.05M160.5 242.05Q160.412 242.087 160.3 242.1L185.2 240.05 185.25 240.05Q207.420 238.718 223.2 239.2 217.675 236.892 214.75 236.15 207.7 234.4 196.45 235.3 185.4 236.1 174 238.25 165.5 239.85 160.5 242.05M214.85 254.8Q214.4 253.8 213.45 253.8 212.6 253.8 211.2 254.95 209.75 256.05 209.35 257.15 208.95 258.1 209.5 259.5L209.8 260.05 212.1 258.15 211.55 257Q211.45 256.85 211.45 256.6 211.55 256.4 211.75 256.25L212.05 256.1Q212.25 256.2 212.3 256.4L212.65 257.1Q212.9 257.7 212.3 260.35L212.05 261.35Q211.7 263.2 211.7 263.65 211.7 264.35 211.95 265L212.65 266.5 218.1 262.05 217.4 260.4 214.2 263Q214.1 262.8 214.1 262.45 214.1 261.7 214.4 260.4L214.6 259.4Q215.4 256.15 214.85 254.8M217.7 251.9L217.9 251.7 219.3 255.55 221.2 254 218.9 248.9 215.75 251.45 216.2 258.75 216.8 260.1 220.15 257.4 221.1 259.6 223 258.05 222.05 255.85 223.15 254.95 222.55 253.55 218.25 257.05 217.7 251.9M230.75 250.05L230.55 249.55 223.75 255.1 223.95 255.55 230.75 250.05M229.9 248.2L229.7 247.7 222.95 253.25 223.15 253.7 229.9 248.2M230.3 249.1L230.1 248.65 223.35 254.15 223.55 254.6 230.3 249.1M224.7 246.5Q224.05 247.15 223.95 247.4 223.7 247.8 223.6 248.45L222.5 246 220.45 247.65 222.75 252.75 224.75 251.1 224.05 249.5Q223.9 249.3 224 249.1 224 248.95 224.2 248.75L224.55 248.6Q224.65 248.6 224.8 248.85L225.5 250.5 227.6 248.8 226.6 246.65Q226.3 246.1 225.85 246 225.35 246 224.7 246.5Z"/><path fill="#211816" stroke="none" d="M148.05 242.35Q147.663 242.325 147.25 242.45 138.952 245.714 136.65 252.1 135.408 255.518 135.95 258.2 136.130 258.948 136.75 259.35 137.350 259.795 138.05 259.65 140.806 259.249 143.25 258.45 140.406 269.388 139.25 280.1 138.673 285.296 138.05 287.55 137.844 287.879 137.75 288.35 137.224 289.553 136.15 291L136.3 290.85Q136.069 291.145 135.9 291.4 135.207 292.436 133.9 294.15 133.900 294.188 133.85 294.2 128.105 302.746 130.8 313.95L130.8 314Q132.918 322.605 138.8 327.9 139.817 329.073 140.95 329.8 140.508 330.250 140.15 330.7 140.134 330.773 140.1 330.8 139.159 332.022 139 333.55 138.995 333.667 139 333.75L139 333.8Q138.996 333.871 139 333.95 139.05 334.563 139.1 335.05 139.117 335.200 139.15 335.3 139.485 336.842 140.85 338.2 141.416 338.782 142.15 339.3L142.1 339.25Q143.111 339.959 144.45 340.55L144.45 340.55Q150.148 343.042 162.5 340.85L162.5 340.85Q162.629 340.899 162.75 340.9 162.913 340.9 163.1 340.9 167.934 342.386 176.85 343.4 186.126 344.556 191.75 344.25 199.676 343.866 204.3 340.85L204.25 340.85Q207.177 339.065 209.1 336.3 212.232 336.812 215.1 336.95L215.1 336.95Q228.236 337.416 238.25 332.35 238.312 332.335 238.35 332.3 239.15 331.875 239.95 331.4L239.9 331.4Q240.537 331.089 241.15 330.7 244.119 328.809 246.25 326.35 249.258 323.006 250.15 319.1 251.120 315.156 249.75 310.35L249.8 310.35Q248.711 306.314 246.3 302.85 244.930 300.804 243.05 298.95 238.720 294.686 233.2 292.85 233.305 292.436 233.35 292L233.35 291.95Q234.094 286.899 234.2 281.9 234.303 278.011 234.05 274.15 233 273.408 233.4 272.9 233.257 272.755 233.05 272.65 232.621 272.411 232.05 272.45 231.309 272.499 230.8 273.05 230.297 273.658 230.35 274.4 230.596 278.087 230.5 281.8 230.405 286.600 229.7 291.45L229.7 291.4Q229.525 292.65 229.3 293.9 229.209 294.603 229.6 295.2 229.988 295.809 230.65 296 236.206 297.433 240.45 301.6 242.069 303.195 243.25 304.95 244.656 306.951 245.5 309.2 245.931 310.231 246.2 311.3L246.2 311.35Q247.279 315.143 246.55 318.25 245.897 321.053 243.85 323.5 243.708 323.716 243.5 323.9 241.680 325.990 239.15 327.6 238.662 327.909 238.15 328.15L238.15 328.2Q237.35 328.65 236.55 329.1L236.6 329.05Q227.373 333.678 215.3 333.25L215.25 333.25Q213.198 333.146 210.95 332.8 211.134 332.461 211.25 332.05L211.25 332.1Q213.369 326.580 212.15 320.95 210.961 315.528 206.95 311.15 203.130 306.929 197.8 304.85 197.106 304.593 196.4 304.9 195.700 305.212 195.4 305.9 195.143 306.642 195.45 307.35 195.762 308.049 196.45 308.3 200.969 310.069 204.2 313.65 207.538 317.271 208.55 321.75 209.530 326.319 207.8 330.8L207.8 330.8Q207.366 332.056 206.75 333.1 206.684 333.223 206.6 333.3 206.479 333.542 206.35 333.75 204.775 336.188 202.3 337.7L202.3 337.75Q198.323 340.233 191.55 340.55 186.173 340.843 177.3 339.75 168.590 338.739 163.95 337.25 163.681 337.194 163.4 337.2 163.05 337.2 162.75 337.2 162.608 337.200 162.45 337.2 162.185 337.173 161.85 337.2 150.942 339.153 145.9 337.15L145.95 337.15Q144.988 336.740 144.25 336.25 144.246 336.225 144.2 336.2 143.783 335.917 143.45 335.6 142.967 335.111 142.75 334.6 142.751 334.221 142.7 333.8 142.771 333.393 143 333.05 143.063 333.022 143.1 332.95 143.574 332.361 144.45 331.8 149.623 334.361 156.75 334.85 164.705 335.381 169.5 333.3 170.231 333.003 170.5 332.3 170.807 331.587 170.5 330.85 170.203 330.166 169.5 329.85 168.788 329.593 168.05 329.9 163.893 331.618 157 331.15 150.263 330.692 145.45 328.15 145.415 328.138 145.35 328.1 144.987 327.858 144.6 327.65 144.503 327.581 144.35 327.5L144.35 327.5Q144.312 327.489 144.25 327.45 143.929 327.224 143.5 327 143.472 326.974 143.4 326.95 142.438 326.439 141.6 325.45 141.513 325.395 141.4 325.3 136.258 320.676 134.4 313.1L134.4 313.1Q132.112 303.593 136.85 296.35 136.902 296.313 136.9 296.25 138.405 294.313 139.15 293.25 139.174 293.240 139.2 293.2L139.2 293.15Q140.524 291.304 141.15 289.8 141.316 289.593 141.4 289.35 142.211 287.046 142.95 280.5 144.085 269.986 146.9 259.25L146.9 259.25Q147.224 257.973 147.55 256.75 147.886 256.619 148.2 256.45 148.250 256.434 148.25 256.4 151.811 254.555 154.65 251.75 156.451 250.014 157.8 248.05 161.655 250.450 168.2 254.7 177.754 260.938 182.15 263.45L182.2 263.45Q199.682 273.336 209.9 273 217.364 272.970 229.05 260.75 232.484 257.247 235.35 253.75 236.256 252.660 237.1 251.55 237.123 251.548 237.15 251.5 238 250.337 238.85 249.2 239.141 248.807 239.2 248.3L239.85 242.25Q239.935 241.509 239.45 240.9 238.964 240.290 238.2 240.2 233.704 239.698 228.4 239.4 225.907 239.268 223.2 239.2 207.420 238.718 185.25 240.05L185.2 240.05 160.3 242.1 155.25 242.55Q154.860 242.580 154.5 242.75L148.05 242.35M156.7 243.05L156.7 243.05Q156.555 242.968 156.4 242.9L156.4 242.85Q156.489 242.899 156.55 242.95 156.700 243.015 156.8 243.1 156.775 243.072 156.7 243.05M157.05 243.25L157 243.2Q156.951 243.184 156.9 243.15 156.983 243.202 157.05 243.25M148.25 246.05L154.35 246.45Q153.356 247.858 152.05 249.1 149.608 251.524 146.55 253.15 146.549 253.161 146.5 253.15 145.919 253.474 145.3 253.7L145.25 253.75Q145.250 253.763 145.2 253.75L145.15 253.8Q145.124 253.836 145.1 253.85 142.534 254.990 139.55 255.65 139.691 254.586 140.1 253.4 141.991 248.628 148.25 246.05M235.95 243.7L235.55 247.35Q234.864 248.355 234.15 249.35L234.2 249.3Q230.754 253.750 226.4 258.2 216.133 268.930 209.8 269.3 200.317 269.463 184 260.25L184 260.25Q179.645 257.761 170.2 251.6 164.749 248.053 161.15 245.75L185.5 243.75Q211.145 242.207 228.2 243.1 232.337 243.339 235.95 243.7Z"/><path fill="#d7000f" stroke="none" d="M235.55 247.35L235.95 243.7Q232.337 243.339 228.2 243.1 211.145 242.207 185.5 243.75L161.15 245.75Q164.749 248.053 170.2 251.6 179.645 257.761 184 260.25L184 260.25Q200.317 269.463 209.8 269.3 216.133 268.930 226.4 258.2 230.754 253.750 234.2 249.3L234.15 249.35Q234.864 248.355 235.55 247.35M223.95 247.4Q224.05 247.15 224.7 246.5 225.35 246 225.85 246 226.3 246.1 226.6 246.65L227.6 248.8 225.5 250.5 224.8 248.85Q224.65 248.6 224.55 248.6L224.2 248.75Q224 248.95 224 249.1 223.9 249.3 224.05 249.5L224.75 251.1 222.75 252.75 220.45 247.65 222.5 246 223.6 248.45Q223.7 247.8 223.95 247.4M230.1 248.65L230.3 249.1 223.55 254.6 223.35 254.15 230.1 248.65M229.7 247.7L229.9 248.2 223.15 253.7 222.95 253.25 229.7 247.7M230.55 249.55L230.75 250.05 223.95 255.55 223.75 255.1 230.55 249.55M217.9 251.7L217.7 251.9 218.25 257.05 222.55 253.55 223.15 254.95 222.05 255.85 223 258.05 221.1 259.6 220.15 257.4 216.8 260.1 216.2 258.75 215.75 251.45 218.9 248.9 221.2 254 219.3 255.55 217.9 251.7M213.45 253.8Q214.4 253.8 214.85 254.8 215.4 256.15 214.6 259.4L214.4 260.4Q214.1 261.7 214.1 262.45 214.1 262.8 214.2 263L217.4 260.4 218.1 262.05 212.65 266.5 211.95 265Q211.7 264.35 211.7 263.65 211.7 263.2 212.05 261.35L212.3 260.35Q212.9 257.7 212.65 257.1L212.3 256.4Q212.25 256.2 212.05 256.1L211.75 256.25Q211.55 256.4 211.45 256.6 211.45 256.85 211.55 257L212.1 258.15 209.8 260.05 209.5 259.5Q208.95 258.1 209.35 257.15 209.75 256.05 211.2 254.95 212.6 253.8 213.45 253.8M154.35 246.45L148.25 246.05Q141.991 248.628 140.1 253.4 139.691 254.586 139.55 255.65 142.534 254.990 145.1 253.85 145.124 253.836 145.15 253.8L145.2 253.75Q145.250 253.763 145.25 253.75L145.3 253.7Q145.919 253.474 146.5 253.15 146.549 253.161 146.55 253.15 149.608 251.524 152.05 249.1 153.356 247.858 154.35 246.45Z"/><animate attributeName="display" repeatCount="indefinite" dur="0.667s" keyTimes="0;.95;1" values="inline;none;none"/></g><g id="Layer4_0_FILL"><path fill="#FFF" stroke="none" d="M164.7 294.35Q164.9 294.45 165.1 294.65 172.25 302 182.25 305.15 188.35 307 194.15 307 198.2 307 199.65 305.8L199.65 305.85Q201.05 304.35 200.55 302.85 199.9 301.35 198.15 300.6L198.1 300.6Q197.4 300.3 196.1 300 194.1 299.55 193.6 299.4 193.55 299.35 193.5 299.35 190.35 298.35 186.45 294.25 181.9 289.4 179.2 285.15 176.3 280.65 174.9 276.25L164.7 294.35Z"/><path fill="#211816" stroke="none" d="M174.4 274.4Q174.6 275.3 174.9 276.25 176.3 280.65 179.2 285.15 181.9 289.4 186.45 294.25 190.35 298.35 193.5 299.35 193.55 299.35 193.6 299.4 194.1 299.55 196.1 300 197.4 300.3 198.1 300.6L198.15 300.6Q199.9 301.35 200.55 302.85 201.05 304.35 199.65 305.85L199.65 305.8Q198.2 307 194.15 307 188.35 307 182.25 305.15 172.25 302 165.1 294.65 164.9 294.45 164.7 294.35 164.25 294.1 163.8 294.1 163 294.1 162.5 294.65 161.9 295.15 161.9 295.95 161.9 296.7 162.45 297.25 170.25 305.3 181.15 308.7 187.85 310.7 194.15 310.7 200.3 310.7 202.3 308.4 205.5 305.05 204 301.5L203.95 301.45Q202.8 298.55 199.6 297.2 198.7 296.8 196.95 296.4 195.25 296 194.7 295.85L194.65 295.85Q192.2 294.9 189.15 291.7 184.9 287.1 182.3 283.15 179.15 278.3 178 273.55 177.8 272.8 177.2 272.4 176.5 271.95 175.8 272.15 175.05 272.3 174.65 273 174.2 273.65 174.4 274.4Z"/><animate attributeName="display" repeatCount="indefinite" dur="0.667s" keyTimes="0;.95;1" values="none;inline;inline"/></g><g display="none" id="Layer3_0_FILL"><path fill="#FFF" stroke="none" d="M164.7 294.35Q164.9 294.45 165.1 294.65 172.25 302 182.25 305.15 188.35 307 194.15 307 198.2 307 199.65 305.8L199.65 305.85Q201.05 304.35 200.55 302.85 199.9 301.35 198.15 300.6L198.1 300.6Q197.4 300.3 196.1 300 194.1 299.55 193.6 299.4 193.55 299.35 193.5 299.35 190.35 298.35 186.45 294.25 181.9 289.4 179.2 285.15 176.3 280.65 174.9 276.25L164.7 294.35Z"/><path fill="#211816" stroke="none" d="M174.4 274.4Q174.6 275.3 174.9 276.25 176.3 280.65 179.2 285.15 181.9 289.4 186.45 294.25 190.35 298.35 193.5 299.35 193.55 299.35 193.6 299.4 194.1 299.55 196.1 300 197.4 300.3 198.1 300.6L198.15 300.6Q199.9 301.35 200.55 302.85 201.05 304.35 199.65 305.85L199.65 305.8Q198.2 307 194.15 307 188.35 307 182.25 305.15 172.25 302 165.1 294.65 164.9 294.45 164.7 294.35 164.25 294.1 163.8 294.1 163 294.1 162.5 294.65 161.9 295.15 161.9 295.95 161.9 296.7 162.45 297.25 170.25 305.3 181.15 308.7 187.85 310.7 194.15 310.7 200.3 310.7 202.3 308.4 205.5 305.05 204 301.5L203.95 301.45Q202.8 298.55 199.6 297.2 198.7 296.8 196.95 296.4 195.25 296 194.7 295.85L194.65 295.85Q192.2 294.9 189.15 291.7 184.9 287.1 182.3 283.15 179.15 278.3 178 273.55 177.8 272.8 177.2 272.4 176.5 271.95 175.8 272.15 175.05 272.3 174.65 273 174.2 273.65 174.4 274.4Z"/><animate attributeName="display" repeatCount="indefinite" dur="0.667s" keyTimes="0;.95;1" values="inline;none;none"/></g><g id="Tween-11" transform="translate(185.75 175.8)"><animateTransform attributeName="transform" additive="replace" type="translate" repeatCount="indefinite" dur="0.667s" keyTimes="0;.45;.95;1" values="190.8,243.5;190.817,243.521;190.8,243.5;190.8,243.5"/><animateTransform attributeName="transform" additive="sum" type="rotate" repeatCount="indefinite" dur="0.667s" keyTimes="0;.45;.95;1" values="0,0,0;1.951,0,0;0,0,0;0,0,0"/><animateTransform attributeName="transform" additive="sum" type="translate" repeatCount="indefinite" dur="0.667s" keyTimes="0;.45;.95;1" values="-5.05,-67.7;-5.15,-67.8;-5.05,-67.7;-5.05,-67.7"/><path fill="#211816" stroke="none" d="M78.25 -59.25Q65.6 -68.15 58.8 -68.9 52.65 -69.7 -3.35 -70.5 -56.3 -71.25 -63.1 -71.05L-63.15 -71.05Q-74.1 -71.05 -79.6 -70.75 -91.3 -70.05 -91.8 -66.1L-91.8 -66.05Q-92.75 -62.2 -94.55 -22.1 -96.35 17.3 -96.1 24.5 -95.9 28.85 -95.75 34.05 -95.75 34.1 -95.75 34.2 -95.4 38.05 -93.9 40.05L-93.85 40.05Q-91.95 42.6 -78.5 59.2 -78.5 59.25 -78.4 59.3L-74.95 62.85Q-74.9 62.9 -74.8 63 -69.9 67.05 -63.9 68.45 -58.05 69.8 -30.85 70.05 -9.45 70.3 .95 69.95 5.3 69.8 17.15 70.35 31.2 70.95 33.8 71 38.55 71.1 53.7 71.1 69.9 71.1 73.6 70.95L76.05 70.9Q79.05 70.65 81.85 69.65L81.9 69.65Q91 66.45 93.75 57.15L93.75 57.1Q96.25 48.5 96.2 13.25 96.1 -6.45 95.4 -26.25 95.05 -35.4 94.9 -37.75L94.9 -37.8Q94.6 -41.7 94.1 -43.6 94.05 -43.7 94.05 -43.8L94 -43.85 94 -43.95Q93.65 -45 93.35 -45.5 90.1 -50.85 78.25 -59.25M58.35 -65.25Q63.75 -64.55 73.4 -58.1L-79.65 -58.25Q-79.9 -58.25 -80.05 -58.2L-87.5 -65.75Q-85.65 -66.65 -79.4 -67.05 -73.95 -67.35 -63.1 -67.35L-63.05 -67.35Q-56.4 -67.55 -3.4 -66.8 52.25 -66 58.35 -65.25M78.3 -54.4Q78.45 -54.4 78.6 -54.4 85.9 -49.05 89 -45.15 3.55 -46.1 -12.85 -45.8 -24.8 -45.6 -43.85 -45.4 -62.3 -45.25 -64.85 -45.35L-64.9 -45.35Q-66.15 -45.45 -67.15 -45L-76.5 -54.55 78.3 -54.4M91.2 -37.5Q91.35 -35.2 91.7 -26.1 92.4 -6.35 92.5 13.25 92.55 47.7 90.2 56.1 88 63.55 80.65 66.15 78.25 66.95 75.7 67.2L73.45 67.25Q69.8 67.4 53.7 67.4 38.6 67.4 33.85 67.3 31.3 67.25 17.3 66.65 5.25 66.1 .8 66.25 -9.55 66.6 -30.8 66.35 -57.3 66.1 -63.05 64.85 -65.95 64.15 -68.55 62.8 -68.55 62.5 -68.65 62.2 -69.6 59.5 -69.5 31.1 -69.45 5.45 -68.85 -7.15 -68.05 -30.7 -67.45 -36.15 -66.9 -41.35 -64.95 -41.65 -62.25 -41.55 -43.8 -41.7 -24.7 -41.9 -12.8 -42.1 3.8 -42.4 90.75 -41.45 91 -39.9 91.2 -37.5M-90.85 -21.95Q-89.5 -52.45 -88.65 -61.6L-69.75 -42.4Q-69.75 -42.35 -69.7 -42.35 -70.75 -40.2 -71.15 -36.55 -71.75 -31.05 -72.55 -7.3 -73.15 5.4 -73.2 31.1 -73.25 52.5 -72.65 59.9L-75.75 56.7Q-88.95 40.45 -90.9 37.9 -91.8 36.45 -92.05 33.85 -92.2 28.7 -92.4 24.35 -92.65 17.2 -90.85 -21.95Z"/><path fill="#FFF" stroke="none" d="M-88.65 -61.6Q-89.5 -52.45 -90.85 -21.95 -92.65 17.2 -92.4 24.35 -92.2 28.7 -92.05 33.85 -91.8 36.45 -90.9 37.9 -88.95 40.45 -75.75 56.7L-72.65 59.9Q-73.25 52.5 -73.2 31.1 -73.15 5.4 -72.55 -7.3 -71.75 -31.05 -71.15 -36.55 -70.75 -40.2 -69.7 -42.35 -69.75 -42.35 -69.75 -42.4L-88.65 -61.6M91.7 -26.1Q91.35 -35.2 91.2 -37.5 91 -39.9 90.75 -41.45 3.8 -42.4 -12.8 -42.1 -24.7 -41.9 -43.8 -41.7 -62.25 -41.55 -64.95 -41.65 -66.9 -41.35 -67.45 -36.15 -68.05 -30.7 -68.85 -7.15 -69.45 5.45 -69.5 31.1 -69.6 59.5 -68.65 62.2 -68.55 62.5 -68.55 62.8 -65.95 64.15 -63.05 64.85 -57.3 66.1 -30.8 66.35 -9.55 66.6 .8 66.25 5.25 66.1 17.3 66.65 31.3 67.25 33.85 67.3 38.6 67.4 53.7 67.4 69.8 67.4 73.45 67.25L75.7 67.2Q78.25 66.95 80.65 66.15 88 63.55 90.2 56.1 92.55 47.7 92.5 13.25 92.4 -6.35 91.7 -26.1M55.55 -5.35Q75.65 -5.85 76.6 -5.45 77.85 -4.85 78.45 -4 79.15 -2.9 79.15 -1 79.05 3.9 76.45 4.1 75.65 4.15 65.75 4.2 56.2 4.25 52.9 4.2 51 4.15 50.5 3.65 50.25 3.05 50.05 2.8 49.75 2.55 49.95 -.65L50.15 -3.8Q50.6 -4.7 53.1 -5.1 54.4 -5.3 55.55 -5.35M-36.7 -6.3L-14.6 -6.5 -12.75 -6.3Q-10.9 -5.65 -11 -3.15 -11.05 -1.15 -10.85 1.9 -11.2 3.9 -14.6 3.75 -18.2 3.65 -27.35 3.8L-35.75 4Q-37.1 4.15 -38.45 3.5 -41.1 2.2 -40.95 -1.85 -40.85 -5.05 -39.1 -5.95 -38.3 -6.4 -36.7 -6.3M-16.7 14.65Q-15.8 15.7 -15.55 16.7L-15.4 18.15Q-15.3 19.85 -15.65 21.15 -16.9 25.4 -22.35 24.3 -27.8 23.2 -28.2 19.45 -28.3 18.3 -27.9 17L-27.5 15.95Q-27.45 15.1 -26.75 14.2 -25.35 12.5 -21.95 12.55 -18.55 12.6 -16.7 14.65M67.6 19.3Q67.55 22.05 65.6 24.15 62.9 27.1 58.5 24.9 54.2 22.8 54.2 19.65L55 16.9 56.7 14.35Q59 12 62.3 12.7 65.75 13.45 66.9 15.6 67.65 16.95 67.6 19.3M12.75 27.9Q12.4 29.2 10.6 28.85 8.85 28.5 8.75 27.35L8.95 26.3 9.2 25.8Q9.65 25.25 10.75 25.25 11.85 25.3 12.45 25.9 12.75 26.25 12.8 26.55L12.75 27.9M1.5 33.65Q1.65 32.95 2.3 32.6 2.9 32.2 3.6 32.4 4.25 32.55 4.65 33.2 5 33.8 4.85 34.5L4.65 35.45Q4.55 36.35 5 37.1 6.8 39.95 14.25 39.75 24.45 39.4 27.6 39 30.15 38.65 32.2 37.55 33.55 36.8 33.9 35.95 34.05 35.1 33.35 34.05 32.95 33.45 33.15 32.75 33.25 32.05 33.9 31.65 34.45 31.25 35.15 31.45 35.85 31.55 36.25 32.15 37.95 34.8 37.2 36.95 36.7 39.05 33.85 40.6 31.25 41.95 28.05 42.4 24.85 42.8 14.35 43.2 4.2 43.45 1.95 38.75 1.05 37.1 1.2 35.15 1.2 35 1.25 34.85L1.5 33.65M23.9 27.15L24.1 26.1 24.35 25.55Q24.8 25 25.9 25.05 27 25.05 27.6 25.7 27.9 26 27.95 26.3L27.9 27.7Q27.5 29 25.75 28.65 24 28.3 23.9 27.15M78.6 -54.4Q78.45 -54.4 78.3 -54.4L-76.5 -54.55 -67.15 -45Q-66.15 -45.45 -64.9 -45.35L-64.85 -45.35Q-62.3 -45.25 -43.85 -45.4 -24.8 -45.6 -12.85 -45.8 3.55 -46.1 89 -45.15 85.9 -49.05 78.6 -54.4M73.4 -58.1Q63.75 -64.55 58.35 -65.25 52.25 -66 -3.4 -66.8 -56.4 -67.55 -63.05 -67.35L-63.1 -67.35Q-73.95 -67.35 -79.4 -67.05 -85.65 -66.65 -87.5 -65.75L-80.05 -58.2Q-79.9 -58.25 -79.65 -58.25L73.4 -58.1Z"/><path fill="#221F20" stroke="none" d="M24.1 26.1L23.9 27.15Q24 28.3 25.75 28.65 27.5 29 27.9 27.7L27.95 26.3Q27.9 26 27.6 25.7 27 25.05 25.9 25.05 24.8 25 24.35 25.55L24.1 26.1M2.3 32.6Q1.65 32.95 1.5 33.65L1.25 34.85Q1.2 35 1.2 35.15 1.05 37.1 1.95 38.75 4.2 43.45 14.35 43.2 24.85 42.8 28.05 42.4 31.25 41.95 33.85 40.6 36.7 39.05 37.2 36.95 37.95 34.8 36.25 32.15 35.85 31.55 35.15 31.45 34.45 31.25 33.9 31.65 33.25 32.05 33.15 32.75 32.95 33.45 33.35 34.05 34.05 35.1 33.9 35.95 33.55 36.8 32.2 37.55 30.15 38.65 27.6 39 24.45 39.4 14.25 39.75 6.8 39.95 5 37.1 4.55 36.35 4.65 35.45L4.85 34.5Q5 33.8 4.65 33.2 4.25 32.55 3.6 32.4 2.9 32.2 2.3 32.6M10.6 28.85Q12.4 29.2 12.75 27.9L12.8 26.55Q12.75 26.25 12.45 25.9 11.85 25.3 10.75 25.25 9.65 25.25 9.2 25.8L8.95 26.3 8.75 27.35Q8.85 28.5 10.6 28.85M65.6 24.15Q67.55 22.05 67.6 19.3 67.65 16.95 66.9 15.6 65.75 13.45 62.3 12.7 59 12 56.7 14.35L55 16.9 54.2 19.65Q54.2 22.8 58.5 24.9 62.9 27.1 65.6 24.15M-15.55 16.7Q-15.8 15.7 -16.7 14.65 -18.55 12.6 -21.95 12.55 -25.35 12.5 -26.75 14.2 -27.45 15.1 -27.5 15.95L-27.9 17Q-28.3 18.3 -28.2 19.45 -27.8 23.2 -22.35 24.3 -16.9 25.4 -15.65 21.15 -15.3 19.85 -15.4 18.15L-15.55 16.7M-14.6 -6.5L-36.7 -6.3Q-38.3 -6.4 -39.1 -5.95 -40.85 -5.05 -40.95 -1.85 -41.1 2.2 -38.45 3.5 -37.1 4.15 -35.75 4L-27.35 3.8Q-18.2 3.65 -14.6 3.75 -11.2 3.9 -10.85 1.9 -11.05 -1.15 -11 -3.15 -10.9 -5.65 -12.75 -6.3L-14.6 -6.5M76.6 -5.45Q75.65 -5.85 55.55 -5.35 54.4 -5.3 53.1 -5.1 50.6 -4.7 50.15 -3.8L49.95 -.65Q49.75 2.55 50.05 2.8 50.25 3.05 50.5 3.65 51 4.15 52.9 4.2 56.2 4.25 65.75 4.2 75.65 4.15 76.45 4.1 79.05 3.9 79.15 -1 79.15 -2.9 78.45 -4 77.85 -4.85 76.6 -5.45Z"/></g><g id="Tween-10" transform="translate(328.7 307.3)"><animateTransform attributeName="transform" additive="replace" type="translate" repeatCount="indefinite" dur="0.667s" keyTimes="0;.45;.95;1" values="320.6,329.95;320.682,329.95;320.6,329.95;320.6,329.95"/><animateTransform attributeName="transform" additive="sum" type="rotate" repeatCount="indefinite" dur="0.667s" keyTimes="0;.45;.95;1" values="0,0,0;-5.752,0,0;0,0,0;0,0,0"/><animateTransform attributeName="transform" additive="sum" type="skewY" repeatCount="indefinite" dur="0.667s" keyTimes="0;.45;.95;1" values="0;5.752;0;0"/><animateTransform attributeName="transform" additive="sum" type="scale" repeatCount="indefinite" dur="0.667s" keyTimes="0;.45;.95;1" values="1,1;1,1.005;1,1;1,1"/><animateTransform attributeName="transform" additive="sum" type="scale" repeatCount="indefinite" dur="0.667s" keyTimes="0;.45;.949;1" values="1,1;.995,1;1,1;1,1"/><animateTransform attributeName="transform" additive="sum" type="translate" repeatCount="indefinite" dur="0.667s" keyTimes="0;.45;.95;1" values="8.1,-22.65;8,-22.65;8.1,-22.65;8.1,-22.65"/><path fill="#F6D896" stroke="none" d="M7.4 -19Q7.5 -19.1 7.65 -19.2 7.95 -19.4 8.05 -19.75 8.15 -20.1 8.05 -20.45 8 -20.6 7.95 -20.7 7.55 -21.35 6.7 -21.25L6.65 -21.25Q5.3 -21.1 3.95 -20.1L4 -20.15Q3.6 -19.85 3.2 -19.55L3.25 -19.6Q.75 -17.65 -.25 -15.05L-.25 -15Q-.45 -14.45 -.6 -13.95 -.65 -13.9 -.65 -13.85 -1.25 -11.65 -1.15 -9.15 -1 -6.65 .05 -1.5 1.4 5.05 1.1 6.95 .4 12.8 -7 14.65 -7.75 14.85 -8.4 14.45 -9 14.1 -9.2 13.45 -10.2 14.8 -10.75 16.4 -11.85 19.5 -10.6 21.45 -10.5 21.4 -10.4 21.4 -7.3 20.45 -4.1 18.85L-4.15 18.85Q-.05 16.75 2.35 12.35 5.2 7 3.45 1.25L3.45 1.3Q2.55 -1.6 2.15 -3.1 1.3 -6 1.25 -8 1.2 -10.25 1.55 -11.9 2 -14.25 3.15 -15.7L3.1 -15.65Q3.7 -16.55 7.4 -19Z"/><path fill="#211816" stroke="none" d="M11.65 -18.9L11.65 -18.95Q11.95 -20.25 11.6 -21.55 11.55 -21.65 11.55 -21.7 11.4 -22.05 11.2 -22.4L11.2 -22.45Q9.7 -25.35 6.25 -24.95 4.1 -24.7 1.85 -23.15L1.8 -23.1Q1.4 -22.8 1 -22.5 -2.4 -19.85 -3.7 -16.3 -3.75 -16.25 -3.75 -16.2 -3.95 -15.6 -4.15 -15L-4.15 -14.95Q-4.95 -12.15 -4.85 -8.95 -4.7 -6.25 -3.55 -.75 -2.4 4.85 -2.55 6.45 -3.2 9.9 -7.9 11.05 -8.65 11.25 -9 11.9 -9.45 12.55 -9.25 13.3 -9.25 13.4 -9.2 13.45 -9 14.1 -8.4 14.45 -7.75 14.85 -7 14.65 .4 12.8 1.1 6.95 1.4 5.05 .05 -1.5 -1 -6.65 -1.15 -9.15 -1.25 -11.65 -.65 -13.85 -.65 -13.9 -.6 -13.95 -.45 -14.45 -.25 -15L-.25 -15.05Q.75 -17.65 3.25 -19.6L3.2 -19.55Q3.6 -19.85 4 -20.15L3.95 -20.1Q5.3 -21.1 6.65 -21.25L6.7 -21.25Q7.55 -21.35 7.95 -20.7 8 -20.6 8.05 -20.45 8.15 -20.1 8.05 -19.75 7.95 -19.4 7.65 -19.2 7.5 -19.1 7.4 -19 3.7 -16.55 3.1 -15.65L3.15 -15.7Q2 -14.25 1.55 -11.9 1.2 -10.25 1.25 -8 1.3 -6 2.15 -3.1 2.55 -1.6 3.45 1.3L3.45 1.25Q5.2 7 2.35 12.35 -.05 16.75 -4.15 18.85L-4.1 18.85Q-7.3 20.45 -10.4 21.4 -10.5 21.4 -10.6 21.45 -11.2 21.7 -11.5 22.3 -11.9 22.95 -11.65 23.7 -11.45 24.4 -10.75 24.8 -10.1 25.15 -9.35 24.95 -6 23.95 -2.45 22.15 2.65 19.55 5.6 14.1 9.2 7.4 7 .15L6.95 .15Q6.1 -2.6 5.7 -4.05L5.7 -4.1Q5 -6.5 4.95 -8.1 4.9 -9.85 5.2 -11.15L5.2 -11.2Q5.4 -12.55 6.05 -13.4 6.05 -13.45 6.1 -13.45 6.6 -14.05 9.45 -15.9 9.5 -15.95 9.6 -16.05 11.25 -17.1 11.65 -18.9Z"/></g><g id="Layer2_0_FILL"><path fill="#FFFDF5" stroke="none" d="M260.45 328.1L260.4 328.1Q257.35 328.15 253.95 327.7 253.2 327.6 252.75 327 252.4 326.55 252.35 326.05 250.15 328.3 249.85 328.85 249.55 329.4 249.1 330.25 248.9 330.5 248.6 330.6 249.2 330.85 249.85 331.15 255.9 333.75 264.45 333.45 270.1 333.3 272.75 332.4 274.45 331.75 275.25 330.35 275.3 330.3 275.3 330.25 275.3 330.2 275.35 330.2 275.35 330.1 275.4 330.05 275.4 329.9 275.45 329.75 275.45 329.4 275.35 329.1 275.1 328.4 274.35 328.15L274.4 328.15Q273.8 327.9 273.1 327.8 272 327.7 265.85 327.9 262.2 328.1 260.45 328.1M298.35 320.7Q297.7 319.25 297.3 318.75 298.3 317.75 299.1 316.95 298.85 316.9 298.7 316.85 297.3 316.65 296 316.35 292.75 315.6 283.2 318.85 280.05 319.9 278.55 321.1 277.1 322.25 276.15 324.4L276.25 324.8Q276.85 324.65 277.45 324.9 278.15 325.2 278.45 325.9 278.65 326.5 278.5 327.05 278.75 327.5 278.9 328.05L278.9 328Q279.25 329.2 279.1 330.35 279.1 330.4 279.1 330.5 279.05 330.65 279 330.9 279.6 331.35 281.65 331.75 283.8 332.15 287.2 332.3 293 332.5 296.75 331.1L296.8 331.05Q297.35 330.85 297.9 330.6L297.95 330.55Q299.25 329.9 300.2 328.95 300.75 328.4 301.5 328.4 302.25 328.4 302.8 328.95 302.95 329.1 303.1 329.3 310.55 330.7 317.55 328.85 316.3 328.85 315.75 328.75 314.95 328.55 313.5 327.65 311.1 325.7 309.7 325.05 308.4 324.45 305.45 324.1 302.55 323.75 301.2 323.1 299.25 322.15 298.35 320.7Z"/><path fill="#F6D896" stroke="none" d="M243.85 321.4Q243.6 321.4 243.45 321.6 244 321.8 244.3 322.3 244.7 322.95 244.55 323.7 243.8 328 248.6 330.6 248.9 330.5 249.1 330.25 249.55 329.4 249.85 328.85 250.15 328.3 252.35 326.05 252.35 325.85 252.4 325.6 252.45 324.85 253.1 324.4 253.1 324.35 253.2 324.3 252.9 324.2 252.4 324.25 249.5 324.4 245.65 322.15 244.3 321.4 243.85 321.4M294.25 294.4Q294.2 294.3 294.15 294.25 294.1 294.35 294.05 294.45 294 294.6 294.9 294.95 295.8 295.3 295.65 295.4 296.3 295.7 296.85 296.4 297.55 297.3 298 297.65 298.65 298.1 299.5 299.4 299.75 299.65 300.65 301.05 301.55 302.35 301.8 304.9 301.95 306.35 302.15 309.1 302.6 312.1 301.15 314.45 300.6 315.35 299.1 316.95 298.3 317.75 297.3 318.75 297.7 319.25 298.35 320.7 299.25 322.15 301.2 323.1 302.55 323.75 305.45 324.1 308.4 324.45 309.7 325.05 311.1 325.7 313.5 327.65 314.95 328.55 315.75 328.75 316.3 328.85 317.55 328.85 317.9 328.75 318.3 328.65 318.3 328.6 318.35 328.6 319.6 326 320.3 324.4 320.15 324.4 320 324.35 319.25 324.2 318.85 323.55 318.4 322.85 318.6 322.15 319.15 319.8 319.2 317.4 319.2 315.9 319 314.4 318.95 314.5 318.85 314.55 318.5 314.85 317.8 314.85 315.15 315.15 312.6 314.85 311.25 314.65 310.85 314.05 310.6 313.65 310.7 313.1 310.8 312.6 311.2 312.2 311.65 311.75 312.95 311.25L317.75 309.45Q317.8 309.45 317.85 309.4 316.9 306.7 315.3 304.4 314.6 305.55 313.65 306.75 312.65 308 311.7 308.65 310.4 309.55 309.1 309.25 307.9 309 307.55 308.05 307.45 307.65 307.55 306.8 307.9 305 309.2 303.05 309.9 302.05 311.6 300.15 308.9 297.7 305.6 296.35 304.25 295.8 302.9 295.45L302.85 295.4Q299.35 294.5 295.6 294.8 294.85 294.85 294.25 294.4Z"/><path fill="#AD824C" stroke="none" d="M312.95 311.25Q311.65 311.75 311.2 312.2 310.8 312.6 310.7 313.1 310.6 313.65 310.85 314.05 311.25 314.65 312.6 314.85 315.15 315.15 317.8 314.85 318.5 314.85 318.85 314.55 318.95 314.5 319 314.4 318.85 313.05 318.5 311.7 318.35 311.1 318.25 310.55 318.2 310.5 318.2 310.45 318.05 309.9 317.85 309.4 317.8 309.45 317.75 309.45L312.95 311.25M309.1 309.25Q310.4 309.55 311.7 308.65 312.65 308 313.65 306.75 314.6 305.55 315.3 304.4 314.6 303.35 313.75 302.4L313.75 302.35Q312.7 301.15 311.6 300.15 309.9 302.05 309.2 303.05 307.9 305 307.55 306.8 307.45 307.65 307.55 308.05 307.9 309 309.1 309.25Z"/><path fill="#211816" stroke="none" d="M241.75 321.75Q241.1 322.15 240.95 322.9 239.1 330.55 248.4 334.55 255.1 337.45 264.55 337.15 271 337 274.05 335.85 275.8 335.15 277 334.05 278.4 334.85 280.9 335.4 283.3 335.85 287.05 336 293.75 336.2 298.05 334.55 298.85 334.25 299.6 333.85L299.65 333.85Q300.6 333.35 301.45 332.75 301.75 332.8 302.1 332.9L302.15 332.9Q311.05 334.6 319.35 332.2 320.05 331.95 320.45 331.3 320.8 330.6 320.6 329.9 320.35 329.15 319.7 328.8 319.05 328.45 318.35 328.6 318.3 328.6 318.3 328.65 317.9 328.75 317.55 328.85 310.55 330.7 303.1 329.3 302.95 329.1 302.8 328.95 302.25 328.4 301.5 328.4 300.75 328.4 300.2 328.95 299.25 329.9 297.95 330.55L297.9 330.6Q297.35 330.85 296.8 331.05L296.75 331.1Q293 332.5 287.2 332.3 283.8 332.15 281.65 331.75 279.6 331.35 279 330.9 279.05 330.65 279.1 330.5 279.1 330.4 279.1 330.35 279.25 329.2 278.9 328L278.9 328.05Q278.75 327.5 278.5 327.05 278.65 326.5 278.45 325.9 278.15 325.2 277.45 324.9 276.85 324.65 276.25 324.8 276.2 324.85 276.15 324.85 275.95 324.75 275.75 324.7L275.7 324.7Q274.75 324.3 273.55 324.15 273.45 324.1 273.4 324.1 272.25 324 265.7 324.2L265.65 324.2Q262.1 324.4 260.4 324.4 257.55 324.45 254.45 324.05 253.75 323.9 253.2 324.3 253.1 324.35 253.1 324.4 252.45 324.85 252.4 325.6 252.35 325.85 252.35 326.05 252.4 326.55 252.75 327 253.2 327.6 253.95 327.7 257.35 328.15 260.4 328.1L260.45 328.1Q262.2 328.1 265.85 327.9 272 327.7 273.1 327.8 273.8 327.9 274.4 328.15L274.35 328.15Q275.1 328.4 275.35 329.1 275.45 329.4 275.45 329.75 275.4 329.9 275.4 330.05 275.35 330.1 275.35 330.2 275.3 330.2 275.3 330.25 275.3 330.3 275.25 330.35 274.45 331.75 272.75 332.4 270.1 333.3 264.45 333.45 255.9 333.75 249.85 331.15 249.2 330.85 248.6 330.6 243.8 328 244.55 323.7 244.7 322.95 244.3 322.3 244 321.8 243.45 321.6 243.3 321.55 243.15 321.5 242.4 321.35 241.75 321.75M294.15 294.25Q294.2 294.3 294.25 294.4 294.85 294.85 295.6 294.8 299.35 294.5 302.85 295.4L302.9 295.45Q304.25 295.8 305.6 296.35 308.9 297.7 311.6 300.15 312.7 301.15 313.75 302.35L313.75 302.4Q314.6 303.35 315.3 304.4 316.9 306.7 317.85 309.4 318.05 309.9 318.2 310.45 318.2 310.5 318.25 310.55 318.35 311.1 318.5 311.7 318.85 313.05 319 314.4 319.2 315.9 319.2 317.4 319.15 319.8 318.6 322.15 318.4 322.85 318.85 323.55 319.25 324.2 320 324.35 320.15 324.4 320.3 324.4 320.85 324.45 321.4 324.15 322.05 323.7 322.2 323 322.85 320.25 322.9 317.45L322.9 317.4Q322.9 314.15 322.1 310.85 321.95 310.15 321.8 309.55L321.8 309.5Q320.15 304.1 316.55 299.95 312.5 295.2 307 292.95 305.6 292.35 304.25 292 303.9 291.75 303.55 291.75 299.55 290.75 295.3 291.1 294.55 291.15 294.05 291.75 293.55 292.35 293.6 293.1 293.65 293.8 294.15 294.25Z"/><animate attributeName="display" repeatCount="indefinite" dur="0.667s" keyTimes="0;.95;1" values="none;inline;inline"/></g><g display="none" id="Layer1_0_FILL"><path fill="#FFFDF5" stroke="none" d="M260.4 328.15L260.4 328.15Q257.330 328.197 253.95 327.7 253.191 327.627 252.7 327 252.405 326.597 252.35 326.1 250.166 328.357 249.85 328.9 249.55 329.45 249.1 330.3 248.901 330.542 248.6 330.6 249.175 330.922 249.8 331.2 255.906 333.784 264.45 333.5 270.090 333.365 272.75 332.4 274.441 331.780 275.25 330.4 275.275 330.337 275.3 330.25 275.313 330.250 275.3 330.2 275.343 330.165 275.35 330.1 275.398 329.928 275.4 329.75 275.433 329.471 275.3 329.15L275.3 329.1Q275.090 328.466 274.35 328.15L274.4 328.15Q273.816 327.961 273.1 327.85 271.978 327.759 265.85 327.95 262.207 328.150 260.4 328.15M299.05 317Q298.871 316.941 298.7 316.9 297.3 316.7 296 316.4 292.75 315.65 283.2 318.9 280.05 319.95 278.55 321.15 277.1 322.3 276.15 324.45L276.25 324.85Q276.835 324.692 277.4 324.95 278.134 325.247 278.4 325.95 278.653 326.529 278.5 327.1 278.728 327.558 278.85 328.05L278.85 328.05Q279.244 329.262 279.05 330.4 279.076 330.458 279.05 330.5 279.032 330.708 279 330.9 279.604 331.376 281.6 331.75 283.810 332.203 287.15 332.35 292.979 332.534 296.75 331.1L296.75 331.1Q297.345 330.903 297.85 330.6L297.9 330.6Q299.246 329.942 300.2 329 300.737 328.454 301.5 328.45 302.262 328.454 302.8 329 302.956 329.153 303.05 329.3 310.562 330.729 317.5 328.85 316.298 328.917 315.75 328.8 314.95 328.6 313.5 327.7 311.1 325.75 309.7 325.1 308.4 324.5 305.45 324.15 302.55 323.8 301.2 323.15 299.25 322.2 298.35 320.75 297.7 319.3 297.3 318.8 298.307 317.809 299.05 317Z"/><path fill="#F6D896" stroke="none" d="M243.85 321.45Q243.620 321.467 243.45 321.65 243.978 321.847 244.3 322.35 244.713 322.998 244.55 323.75 243.781 328.065 248.6 330.6 248.901 330.542 249.1 330.3 249.55 329.45 249.85 328.9 250.166 328.357 252.35 326.1 252.341 325.882 252.35 325.65 252.471 324.891 253.05 324.4 253.118 324.392 253.15 324.35 252.906 324.271 252.4 324.3 249.5 324.45 245.65 322.2 244.3 321.45 243.85 321.45M295.65 295.45Q296.3 295.75 296.85 296.45 297.55 297.35 298 297.7 298.65 298.15 299.5 299.45 299.75 299.7 300.65 301.1 301.55 302.4 301.8 304.95 301.95 306.4 302.15 309.15 302.6 312.15 301.15 314.5 300.585 315.396 299.05 317 298.307 317.809 297.3 318.8 297.7 319.3 298.35 320.75 299.25 322.2 301.2 323.15 302.55 323.8 305.45 324.15 308.4 324.5 309.7 325.1 311.1 325.75 313.5 327.7 314.95 328.6 315.75 328.8 316.298 328.917 317.5 328.85 317.899 328.784 318.25 328.65 318.308 328.664 318.35 328.65 319.598 326.031 320.3 324.45 320.133 324.437 319.95 324.4 319.231 324.225 318.8 323.55 318.422 322.921 318.6 322.15 319.151 319.835 319.2 317.45L319.2 317.4Q319.198 315.950 319 314.45 318.935 314.537 318.85 314.6 318.5 314.9 317.8 314.9 315.15 315.2 312.6 314.9 311.25 314.7 310.85 314.1 310.6 313.7 310.7 313.15 310.8 312.65 311.2 312.25 311.65 311.8 312.95 311.3L317.75 309.5Q317.805 309.477 317.85 309.45 316.887 306.738 315.3 304.4 314.610 305.589 313.65 306.8 312.65 308.05 311.7 308.7 310.4 309.6 309.1 309.3 307.9 309.05 307.55 308.1 307.45 307.7 307.55 306.85 307.9 305.05 309.2 303.1 309.886 302.093 311.55 300.15 308.893 297.763 305.6 296.4 304.249 295.844 302.9 295.45 302.861 295.464 302.8 295.45 299.327 294.528 295.6 294.85 294.837 294.916 294.25 294.4 294.184 294.368 294.1 294.3 294.094 294.395 294.05 294.5 294 294.65 294.9 295 295.8 295.35 295.65 295.45Z"/><path fill="#AD824C" stroke="none" d="M312.95 311.3Q311.65 311.8 311.2 312.25 310.8 312.65 310.7 313.15 310.6 313.7 310.85 314.1 311.25 314.7 312.6 314.9 315.15 315.2 317.8 314.9 318.5 314.9 318.85 314.6 318.935 314.537 319 314.45 318.832 313.099 318.5 311.7 318.359 311.129 318.2 310.55 318.213 310.537 318.2 310.5 318.039 309.972 317.85 309.45 317.805 309.477 317.75 309.5L312.95 311.3M313.75 302.4L313.75 302.4Q312.718 301.189 311.55 300.15 309.886 302.093 309.2 303.1 307.9 305.05 307.55 306.85 307.45 307.7 307.55 308.1 307.9 309.05 309.1 309.3 310.4 309.6 311.7 308.7 312.65 308.05 313.65 306.8 314.610 305.589 315.3 304.4 314.583 303.381 313.75 302.4Z"/><path fill="#211816" stroke="none" d="M241.75 321.8Q241.109 322.210 240.95 322.95 239.105 330.621 248.35 334.6 255.093 337.515 264.55 337.2 271.009 337.033 274.05 335.85 275.799 335.203 277 334.05 278.401 334.924 280.85 335.4L280.9 335.4Q283.307 335.896 287 336.05L287.05 336.05Q293.729 336.262 298.05 334.55L298 334.6Q298.828 334.306 299.55 333.9 299.600 333.888 299.6 333.85 300.592 333.384 301.4 332.75 301.766 332.862 302.1 332.9L302.1 332.9Q311.066 334.655 319.3 332.2 320.057 332.002 320.4 331.3 320.792 330.654 320.55 329.9 320.353 329.192 319.65 328.8 319.035 328.475 318.35 328.65 318.308 328.664 318.25 328.65 317.899 328.784 317.5 328.85 310.562 330.729 303.05 329.3 302.956 329.153 302.8 329 302.262 328.454 301.5 328.45 300.737 328.454 300.2 329 299.246 329.942 297.9 330.6L297.85 330.6Q297.345 330.903 296.75 331.1L296.75 331.1Q292.979 332.534 287.15 332.35 283.810 332.203 281.6 331.75 279.604 331.376 279 330.9 279.032 330.708 279.05 330.5 279.076 330.458 279.05 330.4 279.244 329.262 278.85 328.05L278.85 328.05Q278.728 327.558 278.5 327.1 278.653 326.529 278.4 325.95 278.134 325.247 277.4 324.95 276.835 324.692 276.25 324.85 276.186 324.877 276.1 324.9 275.941 324.803 275.75 324.7L275.7 324.7Q274.733 324.357 273.5 324.15 273.462 324.161 273.4 324.15 272.225 324.041 265.7 324.25L265.65 324.25Q262.117 324.447 260.4 324.45L260.35 324.45Q257.555 324.500 254.45 324.05 253.744 323.973 253.15 324.35 253.118 324.392 253.05 324.4 252.471 324.891 252.35 325.65 252.341 325.882 252.35 326.1 252.405 326.597 252.7 327 253.191 327.627 253.95 327.7 257.330 328.197 260.4 328.15L260.4 328.15Q262.207 328.150 265.85 327.95 271.978 327.759 273.1 327.85 273.816 327.961 274.4 328.15L274.35 328.15Q275.090 328.466 275.3 329.1L275.3 329.15Q275.433 329.471 275.4 329.75 275.398 329.928 275.35 330.1 275.343 330.165 275.3 330.2 275.313 330.250 275.3 330.25 275.275 330.337 275.25 330.4 274.441 331.780 272.75 332.4 270.090 333.365 264.45 333.5 255.906 333.784 249.8 331.2 249.175 330.922 248.6 330.6 243.781 328.065 244.55 323.75 244.713 322.998 244.3 322.35 243.978 321.847 243.45 321.65 243.309 321.584 243.15 321.55 242.399 321.385 241.75 321.8M295.3 291.15Q294.530 291.214 294 291.8 293.532 292.388 293.6 293.15 293.657 293.834 294.1 294.3 294.184 294.368 294.25 294.4 294.837 294.916 295.6 294.85 299.327 294.528 302.8 295.45 302.861 295.464 302.9 295.45 304.249 295.844 305.6 296.4 308.893 297.763 311.55 300.15 312.718 301.189 313.75 302.4L313.75 302.4Q314.583 303.381 315.3 304.4 316.887 306.738 317.85 309.45 318.039 309.972 318.2 310.5 318.213 310.537 318.2 310.55 318.359 311.129 318.5 311.7 318.832 313.099 319 314.45 319.198 315.950 319.2 317.4L319.2 317.45Q319.151 319.835 318.6 322.15 318.422 322.921 318.8 323.55 319.231 324.225 319.95 324.4 320.133 324.437 320.3 324.45 320.860 324.491 321.35 324.15 322.025 323.767 322.2 323 322.845 320.276 322.9 317.45L322.9 317.45Q322.902 314.189 322.1 310.85 321.95 310.211 321.8 309.6 321.787 309.564 321.75 309.5 320.159 304.130 316.55 299.95L316.55 300Q312.504 295.256 307 293 305.609 292.421 304.2 292 303.890 291.820 303.55 291.8 299.555 290.781 295.3 291.15Z"/><animate attributeName="display" repeatCount="indefinite" dur="0.667s" keyTimes="0;.95;1" values="inline;none;none"/></g><g id="Tween-9" transform="translate(270.55 303.65)"><animateTransform attributeName="transform" additive="replace" type="translate" repeatCount="indefinite" dur="0.667s" keyTimes="0;.45;.95;1" values="270.55,318.65;270.575,318.782;270.55,318.65;270.55,318.65"/><animateTransform attributeName="transform" additive="sum" type="rotate" repeatCount="indefinite" dur="0.667s" keyTimes="0;.45;.95;1" values="0,0,0;-2.714,0,0;0,0,0;0,0,0"/><animateTransform attributeName="transform" additive="sum" type="translate" repeatCount="indefinite" dur="0.667s" keyTimes="0;.45;.95;1" values="0,-15;0,-15.15;0,-15;0,-15"/><path fill="#211816" stroke="none" d="M16.25 -24Q15.3 -23.8 14.3 -23.45 9.1 -21.75 6.95 -18.85 5.65 -19.1 4.4 -19.15 -1.15 -19.65 -6.3 -18.85 -11.15 -18.15 -15.1 -16.35 -15.15 -16.35 -15.15 -16.3 -17.65 -15.3 -19.75 -13.8 -22.1 -14.5 -24.7 -14.85 -30.3 -15.65 -31.8 -13.5 -33.6 -11.95 -32.7 -5.65L-32.7 -5.6Q-32.2 -1.9 -31.1 .15L-31.1 .2Q-30.95 .45 -30.8 .7 -34.8 4.25 -33.85 10.2 -32.95 16.35 -27.95 19.9L-28 19.9Q-24.4 22.55 -18.55 23.75L-18.55 23.8Q-11.2 25.3 -1.3 24.2 14.35 22.5 20.9 19.95 35.05 14.35 34 1.5 33.65 -3.45 30.15 -7.45 27.6 -10.4 24.35 -11.45 24.3 -11.45 24.25 -11.45 23.95 -11.6 23.7 -11.65 23.95 -12.45 24.1 -13.4 24.1 -13.6 24.1 -13.8 24.05 -14.3 24.2 -14.9 24.2 -15.1 24.2 -15.25 24.2 -15.75 24.2 -16.3 24.2 -16.4 24.2 -16.45 24.15 -17 24.1 -17.5 23.65 -22.7 22.35 -23.65L22.35 -23.6Q22.25 -23.7 22.2 -23.75 22.1 -23.85 22 -23.95 20.7 -25.3 16.25 -24M17.15 -20.4Q19.2 -21 19.8 -20.95 20.15 -20.3 20.4 -17.2L20.4 -17.15Q20.45 -16.6 20.5 -16.1 20.5 -15.75 20.5 -15.4 20.35 -14.55 20.4 -13.75 20.1 -12.35 19.45 -11.55 18.95 -11 18.95 -10.3 18.95 -9.55 19.45 -9 19.95 -8.5 20.7 -8.45 21.9 -8.35 23.1 -7.95L23.15 -7.9Q25.5 -7.15 27.35 -5.05L27.4 -5Q29 -3.15 29.75 -1 30.2 .3 30.3 1.75 30.95 11.95 19.55 16.5 13.25 18.9 -1.7 20.5 -10.9 21.5 -17.8 20.15 -22.7 19.15 -25.8 16.9 -29 14.65 -29.95 10.95 -30.15 10.3 -30.2 9.65L-30.2 9.6Q-30.85 5.7 -28.2 3.35 -27.8 2.95 -27.3 2.65 -26.7 2.2 -26.5 1.5 -26.45 1.2 -26.5 .9 -26.5 .8 -26.5 .7 -26.55 -.05 -27.15 -.55 -27.5 -.9 -27.75 -1.45 -27.8 -1.45 -27.8 -1.5 -28.65 -3.15 -29.05 -6.15 -29.6 -10.05 -29.05 -11.05 -28.2 -11.65 -25.2 -11.2 -22.8 -10.9 -20.7 -10.2L-20.65 -10.2Q-20.4 -10.15 -20.15 -10.05 -19.7 -9.85 -19.2 -9.9 -18.75 -10 -18.3 -10.25 -16.7 -11.5 -14.85 -12.4 -14.3 -12.7 -13.65 -12.95L-13.6 -12.95Q-12 -13.7 -10.2 -14.25 -9.1 -14.55 -7.9 -14.8 -6.85 -15.05 -5.75 -15.2 -4.2 -15.45 -2.55 -15.55 -1.05 -15.65 .55 -15.65 2.25 -15.6 4.05 -15.45 4.1 -15.45 4.15 -15.45 4.85 -15.4 5.55 -15.3 6.2 -15.25 6.85 -15.1 7 -15.1 7.15 -15.1 7.75 -14.8 8.4 -15 9.15 -15.25 9.5 -15.95 10.95 -18.5 15.45 -19.95L15.4 -19.9Q16.3 -20.2 17.1 -20.4L17.15 -20.4M20.45 4.15L20.45 4.1Q20.3 3.65 19.95 3.4 19.55 3.15 19.1 3.25 17.75 3.45 16.45 3.7L16.4 3.7Q15.05 3.95 13.7 4.45 13.25 4.6 13.05 5L13.05 5.05Q12.85 5.45 13.05 5.9 13.2 6.35 13.65 6.55 14.05 6.75 14.5 6.6 15.65 6.15 16.85 5.95L16.8 5.95Q18.15 5.75 19.5 5.5 19.95 5.4 20.25 5 20.5 4.6 20.45 4.15M-18.75 8.55Q-19.05 8.65 -19.3 8.75L-19.35 8.75Q-21.25 9.4 -23.55 9.8 -24.05 9.85 -24.3 10.25 -24.6 10.6 -24.5 11.05L-24.5 11.1Q-24.45 11.55 -24.05 11.85 -23.7 12.1 -23.2 12.05 -20.65 11.6 -18.6 10.95L-18.65 10.95Q-18.25 10.85 -17.85 10.65 -17.4 10.45 -17.2 10.05 -17.05 9.6 -17.25 9.15 -17.45 8.7 -17.85 8.55 -18.3 8.35 -18.75 8.55M21 8.5Q20.7 8.1 20.25 8 17.4 7.35 14.6 7.65 14.1 7.7 13.8 8.1 13.5 8.45 13.55 8.95 13.6 9.4 14 9.7 14.35 10 14.85 9.95 17.3 9.65 19.75 10.25 20.2 10.35 20.6 10.1 21 9.8 21.15 9.35 21.25 8.9 21 8.5M-16.8 12.3Q-17.2 12 -17.65 12.05 -20.5 12.35 -23.05 13.75 -23.5 13.95 -23.65 14.4 -23.8 14.85 -23.55 15.3 -23.35 15.7 -22.9 15.85 -22.45 16 -22 15.8 -19.8 14.65 -17.4 14.35 -16.95 14.3 -16.65 13.95 -16.35 13.55 -16.4 13.1 -16.45 12.6 -16.8 12.3M-.15 3.5Q-.7 3.1 -1.45 3.1 -3.9 3 -6 3.9 -6.95 4.3 -7.4 5 -7.85 5.6 -7.85 6.35 -7.8 7.15 -7.3 7.65 -6.7 8.3 -5.65 8.3L-4.95 8.3Q-4.7 8.3 -4.5 8.3 -4.5 8.45 -4.45 8.6 -3.95 10.2 -4.65 11.4L-4.65 11.35Q-5.15 12.1 -5.95 12.45 -6.8 12.7 -7.5 12.5 -8.25 12.2 -8.65 11.5L-8.7 11.45Q-9.05 10.75 -8.8 10.1 -8.65 9.65 -8.85 9.2 -9.1 8.8 -9.5 8.65 -9.95 8.45 -10.4 8.7 -10.8 8.9 -10.95 9.35 -11.55 10.95 -10.7 12.55L-10.7 12.6Q-9.85 14.1 -8.25 14.65L-8.3 14.65Q-6.8 15.2 -5.15 14.6L-5.1 14.6Q-3.65 14 -2.75 12.65L-2.7 12.65Q-2.4 12.15 -2.2 11.65 -2.05 11.85 -1.8 12.05L-1.8 12.1Q.55 14.1 4 12.6L4.05 12.6Q5.8 11.7 6.25 9.75 6.7 7.4 4.9 6.15 4.5 5.9 4 6 3.55 6.05 3.3 6.45 3 6.8 3.1 7.3 3.15 7.75 3.55 8.05 4.1 8.5 4 9.25 3.8 10.1 3.05 10.5 3 10.5 3 10.55 1.05 11.35 -.25 10.35L-.3 10.35Q-.75 9.9 -1.2 9.1L-1.15 9.15Q-1.5 8.5 -1.55 8 -1.6 7.9 -1.6 7.85 -.5 7.45 .1 6.7 .7 6 .65 5.05 .6 4.05 -.15 3.5M-13.85 4.1Q-13.6 2.9 -14.2 1.95 -14.75 1 -15.85 .75L-16.7 .65Q-17.8 .75 -18.55 1.55 -19.3 2.35 -19.35 3.55 -19.35 5.2 -18.2 6 -17.55 6.5 -16.85 6.55 -15.75 6.65 -14.9 5.95 -14.05 5.25 -13.85 4.1M7.95 -3.45Q6.85 -3.45 6 -2.65L5.7 -2.3 5.45 -1.9Q4.9 -.9 5.2 .2 5.55 1.25 6.6 1.95 8 2.9 9.4 2.3 10.2 1.95 10.6 1.35 11.3 .4 11.15 -.7 10.95 -1.85 10 -2.65 9.1 -3.45 7.95 -3.45Z"/><path fill="#FFFDF5" stroke="none" d="M-16.2 8.6Q-16.7 8.9 -17.25 9.15 -17.05 9.6 -17.2 10.05 -17.4 10.45 -17.85 10.65 -18.25 10.85 -18.65 10.95L-18.6 10.95Q-20.65 11.6 -23.2 12.05 -23.7 12.1 -24.05 11.85 -24.45 11.55 -24.5 11.1L-24.5 11.05Q-27.7 11.4 -29.95 10.95 -29 14.65 -25.8 16.9 -22.7 19.15 -17.8 20.15 -10.9 21.5 -1.7 20.5 13.25 18.9 19.55 16.5 30.95 11.95 30.3 1.75 30.2 .3 29.75 -1 28.8 .05 27.55 1.05 25.8 2.45 24.35 2.95 22.4 3.65 20.45 4.1L20.45 4.15Q20.5 4.6 20.25 5 19.95 5.4 19.5 5.5 18.15 5.75 16.8 5.95L16.85 5.95Q15.65 6.15 14.5 6.6 14.05 6.75 13.65 6.55 13.2 6.35 13.05 5.9 12.85 5.45 13.05 5.05L13.05 5Q8.6 5.05 5.2 3.6 2.3 2.05 .65 1.5 -2.2 .55 -5.7 1.55 -8.5 2.35 -10.85 4.45 -14 7.35 -16.2 8.6M-1.45 3.1Q-.7 3.1 -.15 3.5 .6 4.05 .65 5.05 .7 6 .1 6.7 -.5 7.45 -1.6 7.85 -1.6 7.9 -1.55 8 -1.5 8.5 -1.15 9.15L-1.2 9.1Q-.75 9.9 -.3 10.35L-.25 10.35Q1.05 11.35 3 10.55 3 10.5 3.05 10.5 3.8 10.1 4 9.25 4.1 8.5 3.55 8.05 3.15 7.75 3.1 7.3 3 6.8 3.3 6.45 3.55 6.05 4 6 4.5 5.9 4.9 6.15 6.7 7.4 6.25 9.75 5.8 11.7 4.05 12.6L4 12.6Q.55 14.1 -1.8 12.1L-1.8 12.05Q-2.05 11.85 -2.2 11.65 -2.4 12.15 -2.7 12.65L-2.75 12.65Q-3.65 14 -5.1 14.6L-5.15 14.6Q-6.8 15.2 -8.3 14.65L-8.25 14.65Q-9.85 14.1 -10.7 12.6L-10.7 12.55Q-11.55 10.95 -10.95 9.35 -10.8 8.9 -10.4 8.7 -9.95 8.45 -9.5 8.65 -9.1 8.8 -8.85 9.2 -8.65 9.65 -8.8 10.1 -9.05 10.75 -8.7 11.45L-8.65 11.5Q-8.25 12.2 -7.5 12.5 -6.8 12.7 -5.95 12.45 -5.15 12.1 -4.65 11.35L-4.65 11.4Q-3.95 10.2 -4.45 8.6 -4.5 8.45 -4.5 8.3 -4.7 8.3 -4.95 8.3L-5.65 8.3Q-6.7 8.3 -7.3 7.65 -7.8 7.15 -7.85 6.35 -7.85 5.6 -7.4 5 -6.95 4.3 -6 3.9 -3.9 3 -1.45 3.1M-17.65 12.05Q-17.2 12 -16.8 12.3 -16.45 12.6 -16.4 13.1 -16.35 13.55 -16.65 13.95 -16.95 14.3 -17.4 14.35 -19.8 14.65 -22 15.8 -22.45 16 -22.9 15.85 -23.35 15.7 -23.55 15.3 -23.8 14.85 -23.65 14.4 -23.5 13.95 -23.05 13.75 -20.5 12.35 -17.65 12.05M20.25 8Q20.7 8.1 21 8.5 21.25 8.9 21.15 9.35 21 9.8 20.6 10.1 20.2 10.35 19.75 10.25 17.3 9.65 14.85 9.95 14.35 10 14 9.7 13.6 9.4 13.55 8.95 13.5 8.45 13.8 8.1 14.1 7.7 14.6 7.65 17.4 7.35 20.25 8Z"/><path fill="#AD824C" stroke="none" d="M-10.2 -14.25Q-12 -13.7 -13.6 -12.95L-13.65 -12.95Q-14.3 -12.7 -14.85 -12.4 -14.65 -11.25 -14.4 -9.65 -13.9 -7.15 -12.75 -5.8 -12.3 -5.2 -11.65 -5 -10.95 -4.75 -10.5 -5.15 -10.1 -5.5 -10 -6.5 -9.8 -10.5 -10.2 -14.25M-2.55 -15.55Q-4.2 -15.45 -5.75 -15.2 -6.85 -15.05 -7.9 -14.8 -7.55 -12.45 -6.9 -10.1 -6.5 -8.7 -6.05 -8.15 -5.35 -7.15 -4.25 -7.05 -3.7 -7.05 -3.25 -7.35 -2.8 -7.75 -2.6 -9.05 -2.3 -12.6 -2.55 -15.55M4.05 -15.45Q2.25 -15.6 .55 -15.65 .55 -12.9 1.4 -10.15 2.05 -8.2 3.25 -8.2 4.1 -8.2 4.55 -9 4.85 -9.45 5.05 -10.55 5.5 -12.85 5.55 -15.3 4.85 -15.4 4.15 -15.45 4.1 -15.45 4.05 -15.45Z"/><path fill="#F6D896" stroke="none" d="M19.8 -20.95Q19.2 -21 17.15 -20.4L17.1 -20.4Q16.3 -20.2 15.4 -19.9L15.45 -19.95Q10.95 -18.5 9.5 -15.95 9.15 -15.25 8.4 -15 7.75 -14.8 7.15 -15.1 7 -15.1 6.85 -15.1 6.2 -15.25 5.55 -15.3 5.5 -12.85 5.05 -10.55 4.85 -9.45 4.55 -9 4.1 -8.2 3.25 -8.2 2.05 -8.2 1.4 -10.15 .55 -12.9 .55 -15.65 -1.05 -15.65 -2.55 -15.55 -2.3 -12.6 -2.6 -9.05 -2.8 -7.75 -3.25 -7.35 -3.7 -7.05 -4.25 -7.05 -5.35 -7.15 -6.05 -8.15 -6.5 -8.7 -6.9 -10.1 -7.55 -12.45 -7.9 -14.8 -9.1 -14.55 -10.2 -14.25 -9.8 -10.5 -10 -6.5 -10.1 -5.5 -10.5 -5.15 -10.95 -4.75 -11.65 -5 -12.3 -5.2 -12.75 -5.8 -13.9 -7.15 -14.4 -9.65 -14.65 -11.25 -14.85 -12.4 -16.7 -11.5 -18.3 -10.25 -18.75 -10 -19.2 -9.9 -19.7 -9.85 -20.15 -10.05 -20.4 -10.15 -20.65 -10.2L-20.7 -10.2Q-22.8 -10.9 -25.2 -11.2 -28.2 -11.65 -29.05 -11.05 -29.6 -10.05 -29.05 -6.15 -28.65 -3.15 -27.8 -1.5 -27.8 -1.45 -27.75 -1.45 -27.5 -.9 -27.15 -.55 -26.55 -.05 -26.5 .7 -26.5 .8 -26.5 .9 -26.45 1.2 -26.5 1.5 -26.7 2.2 -27.3 2.65 -27.8 2.95 -28.2 3.35 -30.85 5.7 -30.2 9.6L-30.2 9.65Q-30.15 10.3 -29.95 10.95 -27.7 11.4 -24.5 11.05 -24.6 10.6 -24.3 10.25 -24.05 9.85 -23.55 9.8 -21.25 9.4 -19.35 8.75L-19.3 8.75Q-19.05 8.65 -18.75 8.55 -18.3 8.35 -17.85 8.55 -17.45 8.7 -17.25 9.15 -16.7 8.9 -16.2 8.6 -14 7.35 -10.85 4.45 -8.5 2.35 -5.7 1.55 -2.2 .55 .65 1.5 2.3 2.05 5.2 3.6 8.6 5.05 13.05 5 13.25 4.6 13.7 4.45 15.05 3.95 16.4 3.7L16.45 3.7Q17.75 3.45 19.1 3.25 19.55 3.15 19.95 3.4 20.3 3.65 20.45 4.1 22.4 3.65 24.35 2.95 25.8 2.45 27.55 1.05 28.8 .05 29.75 -1 29 -3.15 27.4 -5L27.35 -5.05Q25.5 -7.15 23.15 -7.9L23.1 -7.95Q21.9 -8.35 20.7 -8.45 19.95 -8.5 19.45 -9 18.95 -9.55 18.95 -10.3 18.95 -11 19.45 -11.55 20.1 -12.35 20.4 -13.75 20.35 -14.55 20.5 -15.4 20.5 -15.75 20.5 -16.1 20.45 -16.6 20.4 -17.15L20.4 -17.2Q20.15 -20.3 19.8 -20.95M6 -2.65Q6.85 -3.45 7.95 -3.45 9.1 -3.45 10 -2.65 10.95 -1.85 11.15 -.7 11.3 .4 10.6 1.35 10.2 1.95 9.4 2.3 8 2.9 6.6 1.95 5.55 1.25 5.2 .2 4.9 -.9 5.45 -1.9L5.7 -2.3 6 -2.65M-14.2 1.95Q-13.6 2.9 -13.85 4.1 -14.05 5.25 -14.9 5.95 -15.75 6.65 -16.85 6.55 -17.55 6.5 -18.2 6 -19.35 5.2 -19.35 3.55 -19.3 2.35 -18.55 1.55 -17.8 .75 -16.7 .65L-15.85 .75Q-14.75 1 -14.2 1.95Z"/></g></g></svg>